<svg width="1196" height="194" viewBox="0 0 1196 194" fill="none" xmlns="http://www.w3.org/2000/svg">
<path d="M245.936 39.1838H268.544V81.8078L308.72 39.1838H336.944L296.768 79.7918L340.832 142H312.464L281.504 95.7758L268.544 108.88V142H245.936V39.1838Z" fill="white"/>
<path d="M347.697 67.5518H367.137V81.3758H367.425C368.385 79.0718 369.681 76.9598 371.313 75.0398C372.945 73.0238 374.817 71.3438 376.929 69.9998C379.041 68.5598 381.297 67.4558 383.697 66.6878C386.097 65.9198 388.593 65.5358 391.185 65.5358C392.529 65.5358 394.017 65.7758 395.649 66.2558V85.2638C394.689 85.0718 393.537 84.9278 392.193 84.8318C390.849 84.6398 389.553 84.5438 388.305 84.5438C384.561 84.5438 381.393 85.1678 378.801 86.4158C376.209 87.6638 374.097 89.3918 372.465 91.5998C370.929 93.7118 369.825 96.2078 369.153 99.0878C368.481 101.968 368.145 105.088 368.145 108.448V142H347.697V67.5518Z" fill="white"/>
<path d="M419.279 104.848C419.279 107.824 419.567 110.752 420.143 113.632C420.719 116.416 421.679 118.96 423.023 121.264C424.463 123.472 426.335 125.248 428.639 126.592C430.943 127.936 433.823 128.608 437.279 128.608C440.735 128.608 443.615 127.936 445.919 126.592C448.319 125.248 450.191 123.472 451.535 121.264C452.975 118.96 453.983 116.416 454.559 113.632C455.135 110.752 455.423 107.824 455.423 104.848C455.423 101.872 455.135 98.9438 454.559 96.0638C453.983 93.1838 452.975 90.6398 451.535 88.4318C450.191 86.2238 448.319 84.4478 445.919 83.1038C443.615 81.6638 440.735 80.9438 437.279 80.9438C433.823 80.9438 430.943 81.6638 428.639 83.1038C426.335 84.4478 424.463 86.2238 423.023 88.4318C421.679 90.6398 420.719 93.1838 420.143 96.0638C419.567 98.9438 419.279 101.872 419.279 104.848ZM398.831 104.848C398.831 98.8958 399.743 93.5198 401.567 88.7198C403.391 83.8238 405.983 79.6958 409.343 76.3358C412.703 72.8798 416.735 70.2398 421.439 68.4158C426.143 66.4958 431.423 65.5358 437.279 65.5358C443.135 65.5358 448.415 66.4958 453.119 68.4158C457.919 70.2398 461.999 72.8798 465.359 76.3358C468.719 79.6958 471.311 83.8238 473.135 88.7198C474.959 93.5198 475.871 98.8958 475.871 104.848C475.871 110.8 474.959 116.176 473.135 120.976C471.311 125.776 468.719 129.904 465.359 133.36C461.999 136.72 457.919 139.312 453.119 141.136C448.415 142.96 443.135 143.872 437.279 143.872C431.423 143.872 426.143 142.96 421.439 141.136C416.735 139.312 412.703 136.72 409.343 133.36C405.983 129.904 403.391 125.776 401.567 120.976C399.743 116.176 398.831 110.8 398.831 104.848Z" fill="white"/>
<path d="M489.166 67.5518H508.606V77.9198H509.038C511.63 73.5998 514.99 70.4798 519.118 68.5598C523.246 66.5438 527.47 65.5358 531.79 65.5358C537.262 65.5358 541.726 66.3038 545.182 67.8398C548.734 69.2798 551.518 71.3438 553.534 74.0318C555.55 76.6238 556.942 79.8398 557.71 83.6798C558.574 87.4238 559.006 91.5998 559.006 96.2078V142H538.558V99.9518C538.558 93.8078 537.598 89.2478 535.678 86.2718C533.758 83.1998 530.35 81.6638 525.454 81.6638C519.886 81.6638 515.854 83.3438 513.358 86.7038C510.862 89.9678 509.614 95.3918 509.614 102.976V142H489.166V67.5518Z" fill="white"/>
<path d="M592.67 104.848C592.67 107.824 592.958 110.752 593.534 113.632C594.11 116.416 595.07 118.96 596.414 121.264C597.854 123.472 599.726 125.248 602.03 126.592C604.334 127.936 607.214 128.608 610.67 128.608C614.126 128.608 617.006 127.936 619.31 126.592C621.71 125.248 623.582 123.472 624.926 121.264C626.366 118.96 627.374 116.416 627.95 113.632C628.526 110.752 628.814 107.824 628.814 104.848C628.814 101.872 628.526 98.9438 627.95 96.0638C627.374 93.1838 626.366 90.6398 624.926 88.4318C623.582 86.2238 621.71 84.4478 619.31 83.1038C617.006 81.6638 614.126 80.9438 610.67 80.9438C607.214 80.9438 604.334 81.6638 602.03 83.1038C599.726 84.4478 597.854 86.2238 596.414 88.4318C595.07 90.6398 594.11 93.1838 593.534 96.0638C592.958 98.9438 592.67 101.872 592.67 104.848ZM572.222 104.848C572.222 98.8958 573.134 93.5198 574.958 88.7198C576.782 83.8238 579.374 79.6958 582.734 76.3358C586.094 72.8798 590.126 70.2398 594.83 68.4158C599.534 66.4958 604.814 65.5358 610.67 65.5358C616.526 65.5358 621.806 66.4958 626.51 68.4158C631.31 70.2398 635.39 72.8798 638.75 76.3358C642.11 79.6958 644.702 83.8238 646.526 88.7198C648.35 93.5198 649.262 98.8958 649.262 104.848C649.262 110.8 648.35 116.176 646.526 120.976C644.702 125.776 642.11 129.904 638.75 133.36C635.39 136.72 631.31 139.312 626.51 141.136C621.806 142.96 616.526 143.872 610.67 143.872C604.814 143.872 599.534 142.96 594.83 141.136C590.126 139.312 586.094 136.72 582.734 133.36C579.374 129.904 576.782 125.776 574.958 120.976C573.134 116.176 572.222 110.8 572.222 104.848Z" fill="white"/>
<path d="M678.397 117.808C678.397 120.016 678.829 121.936 679.693 123.568C680.653 125.104 681.853 126.4 683.293 127.456C684.733 128.416 686.365 129.136 688.189 129.616C690.109 130.096 692.077 130.336 694.093 130.336C695.533 130.336 697.021 130.192 698.557 129.904C700.189 129.52 701.629 128.992 702.877 128.32C704.221 127.552 705.325 126.592 706.189 125.44C707.053 124.192 707.485 122.656 707.485 120.832C707.485 117.76 705.421 115.456 701.293 113.92C697.261 112.384 691.597 110.848 684.301 109.312C681.325 108.64 678.397 107.872 675.517 107.008C672.733 106.048 670.237 104.848 668.029 103.408C665.821 101.872 664.045 99.9998 662.701 97.7918C661.357 95.4878 660.685 92.7038 660.685 89.4398C660.685 84.6398 661.597 80.7038 663.421 77.6318C665.341 74.5598 667.837 72.1598 670.909 70.4318C673.981 68.6078 677.437 67.3598 681.277 66.6878C685.117 65.9198 689.053 65.5358 693.085 65.5358C697.117 65.5358 701.005 65.9198 704.749 66.6878C708.589 67.4558 711.997 68.7518 714.973 70.5758C717.949 72.3998 720.397 74.8478 722.317 77.9198C724.333 80.8958 725.533 84.6878 725.917 89.2958H706.477C706.189 85.3598 704.701 82.7198 702.013 81.3758C699.325 79.9358 696.157 79.2158 692.509 79.2158C691.357 79.2158 690.109 79.3118 688.765 79.5038C687.421 79.5998 686.173 79.8878 685.021 80.3678C683.965 80.8478 683.053 81.5678 682.285 82.5278C681.517 83.3918 681.133 84.5918 681.133 86.1278C681.133 87.9518 681.805 89.4398 683.149 90.5918C684.493 91.7438 686.221 92.7038 688.333 93.4718C690.541 94.1438 693.037 94.7678 695.821 95.3438C698.605 95.9198 701.437 96.5438 704.317 97.2158C707.293 97.8878 710.173 98.7038 712.957 99.6638C715.837 100.624 718.381 101.92 720.589 103.552C722.797 105.088 724.573 107.056 725.917 109.456C727.261 111.76 727.933 114.64 727.933 118.096C727.933 122.992 726.925 127.12 724.909 130.48C722.989 133.744 720.445 136.384 717.277 138.4C714.109 140.416 710.461 141.808 706.333 142.576C702.301 143.44 698.173 143.872 693.949 143.872C689.629 143.872 685.405 143.44 681.277 142.576C677.149 141.712 673.453 140.272 670.189 138.256C667.021 136.24 664.381 133.6 662.269 130.336C660.253 126.976 659.149 122.8 658.957 117.808H678.397Z" fill="white"/>
<path d="M844.662 37.1299C845.198 36.5045 846.002 36.1025 847.074 35.9239C847.253 35.8345 847.432 35.9239 847.61 36.1919C847.789 36.4599 847.968 36.5939 848.146 36.5939C848.95 36.5939 849.888 36.8619 850.96 37.3979C852.032 37.8445 853.06 38.5145 854.042 39.4079C855.025 40.3012 855.918 41.2392 856.722 42.2219C857.169 42.6685 857.571 43.1599 857.928 43.6959C858.286 44.2319 858.598 44.7232 858.866 45.1699C859.76 46.4205 860.474 47.8945 861.01 49.5919C861.189 50.6639 861.189 51.7805 861.01 52.9419C860.921 54.0139 860.787 55.3539 860.608 56.9619C860.43 57.9445 860.251 58.5699 860.072 58.8379C859.983 59.1059 859.849 59.6419 859.67 60.4459C859.492 61.6072 859.313 62.7685 859.134 63.9299C858.956 65.0019 858.732 66.1185 858.464 67.2799C858.643 68.5305 858.777 69.7812 858.866 71.0319C859.045 72.2825 859.224 73.5332 859.402 74.7839L859.804 78.1339C859.358 80.1886 858.911 82.2432 858.464 84.2979C858.018 86.3525 857.571 88.4072 857.124 90.4619C856.946 91.1765 856.812 91.8019 856.722 92.3379C856.633 92.7845 856.588 93.2312 856.588 93.6779C856.946 93.6779 857.169 93.6779 857.258 93.6779C857.348 93.6779 857.392 93.6779 857.392 93.6779C857.482 93.5886 857.571 93.5439 857.66 93.5439C857.839 93.4545 858.196 93.3652 858.732 93.2759L860.608 92.3379L863.958 91.8019C864.584 91.9806 865.03 92.6506 865.298 93.8119C865.656 94.8839 865.834 95.6432 865.834 96.0899C865.834 96.8045 865.432 97.5639 864.628 98.3679C863.735 98.9039 862.306 99.4399 860.34 99.9759L857.928 100.914L855.918 103.058C855.382 103.326 854.936 103.817 854.578 104.532C854.31 105.247 854.042 106.363 853.774 107.882C853.238 111.545 852.836 116.056 852.568 121.416C852.568 121.684 852.568 122.131 852.568 122.756C852.658 123.292 852.524 123.783 852.166 124.23C851.809 125.391 851.586 126.508 851.496 127.58C851.496 128.563 851.496 129.545 851.496 130.528C851.496 131.421 851.496 132.315 851.496 133.208C851.586 134.012 851.586 134.861 851.496 135.754C851.407 136.201 851.362 136.826 851.362 137.63C851.273 138.166 851.184 138.747 851.094 139.372C851.094 139.908 851.139 140.489 851.228 141.114C851.139 142.097 851.094 143.079 851.094 144.062C851.094 144.955 851.094 145.893 851.094 146.876C851.094 147.323 851.05 147.68 850.96 147.948C850.96 148.305 850.96 148.663 850.96 149.02C850.96 150.539 851.005 151.923 851.094 153.174C851.273 154.425 851.452 155.586 851.63 156.658C851.809 157.105 851.943 157.596 852.032 158.132C852.211 158.757 852.39 159.383 852.568 160.008L852.836 162.286C853.015 163.537 853.015 164.653 852.836 165.636C852.658 166.708 852.658 167.691 852.836 168.584C852.836 169.477 853.149 170.192 853.774 170.728C853.774 171.532 853.73 172.068 853.64 172.336C853.551 173.676 853.417 174.793 853.238 175.686C853.149 176.579 853.015 177.651 852.836 178.902C852.658 179.081 852.3 179.215 851.764 179.304C851.318 179.393 850.916 179.527 850.558 179.706C850.022 179.885 849.71 179.974 849.62 179.974L847.744 180.242C847.208 180.331 846.672 180.376 846.136 180.376C845.6 180.465 845.109 180.51 844.662 180.51C843.144 180.51 841.804 180.153 840.642 179.438C839.57 178.813 838.722 177.473 838.096 175.418C837.739 174.971 837.382 174.48 837.024 173.944C836.756 173.408 836.444 172.827 836.086 172.202L834.21 168.986C833.853 168.45 833.54 167.959 833.272 167.512C833.004 167.065 832.736 166.708 832.468 166.44L831.932 164.966C831.664 163.983 831.441 163.001 831.262 162.018C831.084 161.125 830.905 160.187 830.726 159.204C830.548 157.953 830.369 156.703 830.19 155.452C830.012 154.201 829.833 152.951 829.654 151.7C829.565 150.985 829.476 150.226 829.386 149.422C829.386 148.618 829.386 147.859 829.386 147.144L828.984 144.732C828.806 144.196 828.716 143.794 828.716 143.526C828.716 142.901 828.806 141.918 828.984 140.578C829.252 139.238 829.52 137.943 829.788 136.692C829.878 135.977 829.967 135.352 830.056 134.816C830.146 134.191 830.19 133.655 830.19 133.208C830.28 131.957 830.324 130.751 830.324 129.59C830.414 128.339 830.548 127.089 830.726 125.838C830.994 123.247 831.307 120.88 831.664 118.736C832.022 116.503 832.334 114.627 832.602 113.108C832.96 111.589 833.228 110.383 833.406 109.49C833.674 108.507 833.808 107.793 833.808 107.346C833.719 107.167 833.317 106.989 832.602 106.81C832.066 106.81 831.664 106.899 831.396 107.078L825.366 108.284L820.408 109.356C818.622 109.445 816.522 109.535 814.11 109.624C811.788 109.624 809.778 109.713 808.08 109.892C807.366 110.785 806.696 111.679 806.07 112.572C805.534 113.465 804.909 114.314 804.194 115.118C803.212 116.369 802.318 117.575 801.514 118.736C800.71 119.808 799.906 120.969 799.102 122.22C798.209 122.935 797.36 123.694 796.556 124.498C795.752 125.213 795.082 125.838 794.546 126.374L794.278 126.776C792.938 128.116 791.822 129.545 790.928 131.064L787.31 137.362L787.042 137.63L784.898 141.382C784.541 142.007 784.184 142.633 783.826 143.258C783.469 143.794 783.067 144.285 782.62 144.732C781.906 145.625 781.325 146.474 780.878 147.278C780.342 148.082 779.806 148.841 779.27 149.556L778.064 151.7C777.082 152.683 776.144 153.755 775.25 154.916C774.804 155.273 774.446 155.586 774.178 155.854C773.821 156.211 773.419 156.524 772.972 156.792H772.838C771.23 158.043 770.114 158.579 769.488 158.4C768.684 158.311 768.282 157.685 768.282 156.524C768.193 156.435 768.148 156.345 768.148 156.256C768.238 155.899 768.327 155.497 768.416 155.05C768.506 154.693 768.64 154.291 768.818 153.844C768.818 153.755 768.863 153.71 768.952 153.71C768.952 153.71 768.952 153.665 768.952 153.576C768.952 153.397 768.997 153.263 769.086 153.174C769.176 153.085 769.265 152.951 769.354 152.772L770.024 150.762L771.23 149.556C772.124 148.573 773.017 147.501 773.91 146.34C774.804 145.268 775.652 144.196 776.456 143.124L776.858 142.588L779.404 139.372L783.156 133.476C784.139 132.047 785.077 130.573 785.97 129.054C786.864 127.446 787.757 125.883 788.65 124.364L791.598 119.674C792.849 117.709 793.876 116.056 794.68 114.716C795.484 113.287 796.154 112.17 796.69 111.366C796.065 111.366 795.44 111.366 794.814 111.366C794.278 111.366 793.698 111.321 793.072 111.232C791.375 110.785 790.526 110.205 790.526 109.49C790.08 109.133 789.901 108.775 789.99 108.418C789.99 107.703 790.66 106.81 792 105.738C792.447 105.291 792.894 104.934 793.34 104.666C793.876 104.398 794.457 104.085 795.082 103.728C795.797 103.907 796.512 103.907 797.226 103.728C797.941 103.549 798.656 103.46 799.37 103.46C800.353 103.46 801.157 103.371 801.782 103.192C802.497 103.013 803.212 102.656 803.926 102.12C804.462 100.869 805.49 98.9485 807.008 96.3579C808.616 93.6779 810.18 90.8639 811.698 87.9159C812.949 85.5932 814.244 83.3599 815.584 81.2159C817.014 78.9825 818.175 76.6152 819.068 74.1139L821.748 70.4959C822.82 69.2452 823.937 67.9499 825.098 66.6099C826.26 65.1805 827.51 63.6172 828.85 61.9199C832.066 57.4532 834.836 53.6119 837.158 50.3959C839.481 47.1799 841.268 44.2765 842.518 41.6859C842.697 41.2392 842.876 40.8372 843.054 40.4799C843.233 40.0332 843.412 39.6312 843.59 39.2739L844.662 37.1299ZM843.054 50.9319C842.965 50.7532 842.831 50.6192 842.652 50.5299C842.563 50.3512 842.474 50.1725 842.384 49.9939C841.759 50.9765 841.044 52.0485 840.24 53.2099C839.436 54.3712 838.722 55.3539 838.096 56.1579C837.739 56.6045 837.337 57.2299 836.89 58.0339C836.444 58.8379 836.086 59.4185 835.818 59.7759C835.372 60.2225 834.88 60.7585 834.344 61.3839C833.898 62.0092 833.496 62.6345 833.138 63.2599L831.53 66.3419C831.173 66.9672 830.86 67.5925 830.592 68.2179C830.324 68.8432 830.012 69.4239 829.654 69.9599C829.386 70.4959 829.074 71.0319 828.716 71.5679C828.448 72.1039 828.136 72.6399 827.778 73.1759C827.153 73.8012 826.662 74.6499 826.304 75.7219C825.768 77.1512 825.054 78.5805 824.16 80.0099L821.212 85.2359C820.14 87.3799 818.979 89.6579 817.728 92.0699C816.478 94.4819 815.316 96.8045 814.244 99.0379C813.351 100.646 812.904 101.807 812.904 102.522C813.083 102.522 813.262 102.567 813.44 102.656C813.708 102.656 814.066 102.611 814.512 102.522C815.584 102.522 816.835 102.299 818.264 101.852C819.783 101.316 820.989 101.048 821.882 101.048C822.24 101.048 822.463 101.093 822.552 101.182H824.026C825.009 101.003 825.902 100.869 826.706 100.78C827.6 100.601 828.404 100.423 829.118 100.244C829.833 100.065 830.458 99.8865 830.994 99.7079C831.53 99.5292 832.111 99.3505 832.736 99.1719L835.684 98.3679C835.774 97.5639 835.818 96.7599 835.818 95.9559C835.908 95.1519 836.042 94.3032 836.22 93.4099C836.399 92.5165 836.533 91.7126 836.622 90.9979C836.801 90.2832 836.846 89.9706 836.756 90.0599C837.114 88.0946 837.471 86.0399 837.828 83.8959C838.275 81.7519 838.722 79.6079 839.168 77.4639C839.615 75.2305 840.017 73.0865 840.374 71.0319C840.821 68.9772 841.223 67.1012 841.58 65.4039C841.848 64.1532 842.027 62.9919 842.116 61.9199C842.295 60.7585 842.474 59.8205 842.652 59.1059C842.831 57.5872 842.965 56.1579 843.054 54.8179C843.144 53.3885 843.144 52.0932 843.054 50.9319Z" fill="white"/>
<path d="M898.632 113.912C899.436 113.108 900.285 112.84 901.178 113.108C902.071 113.287 902.205 114.091 901.58 115.52C901.759 115.877 901.759 116.145 901.58 116.324C901.491 116.324 901.446 116.369 901.446 116.458C900.91 117.173 900.463 117.887 900.106 118.602L899.034 120.478C898.23 121.997 897.292 123.649 896.22 125.436C895.237 127.133 894.121 128.92 892.87 130.796V130.662C892.691 131.019 892.602 131.377 892.602 131.734V131.868L891.664 133.342C890.86 134.593 890.011 135.843 889.118 137.094C888.225 138.255 887.242 139.417 886.17 140.578L884.964 141.918C883.892 143.258 882.731 144.553 881.48 145.804L880.81 146.206C879.827 146.831 878.934 147.412 878.13 147.948C877.326 148.484 876.522 148.931 875.718 149.288V149.154C874.735 149.69 873.753 150.003 872.77 150.092C871.877 150.271 870.983 150.315 870.09 150.226C867.767 149.779 865.802 148.752 864.194 147.144C862.675 145.536 861.559 143.749 860.844 141.784C860.487 140.801 860.263 139.774 860.174 138.702C859.995 137.63 859.817 136.603 859.638 135.62C859.549 135.173 859.504 134.727 859.504 134.28C859.415 133.744 859.37 133.253 859.37 132.806C859.37 132.359 859.415 131.957 859.504 131.6C859.504 131.243 859.504 130.841 859.504 130.394V127.982C859.683 126.553 859.906 125.168 860.174 123.828C860.442 122.488 860.755 121.059 861.112 119.54L861.514 117.932C861.782 117.039 862.05 116.145 862.318 115.252C862.586 114.359 862.899 113.421 863.256 112.438C864.06 110.473 864.819 108.552 865.534 106.676C866.249 104.711 866.874 102.835 867.41 101.048C867.499 100.869 867.544 100.601 867.544 100.244C867.991 98.0105 868.839 96.6705 870.09 96.2239H869.956C870.492 95.8665 871.028 95.6879 871.564 95.6879C872.1 95.5985 872.815 95.6432 873.708 95.8219C875.137 96.0899 876.611 97.1619 878.13 99.0379C879.738 100.825 880.765 103.192 881.212 106.14C881.301 106.855 881.257 107.659 881.078 108.552C880.899 109.356 880.676 110.205 880.408 111.098L880.14 112.17C880.14 112.259 880.185 112.349 880.274 112.438L880.408 112.84C880.587 113.376 880.676 113.867 880.676 114.314V115.922C880.676 116.19 880.676 116.458 880.676 116.726C880.765 116.994 880.81 117.262 880.81 117.53C880.542 118.602 880.229 119.629 879.872 120.612C879.515 121.595 879.157 122.488 878.8 123.292L877.862 125.302C877.862 125.481 877.862 125.615 877.862 125.704C877.951 125.793 877.996 125.927 877.996 126.106C877.281 127.893 876.656 129.724 876.12 131.6C875.584 133.387 875.182 135.129 874.914 136.826V136.96C875.003 137.139 875.048 137.317 875.048 137.496C875.048 137.585 874.914 137.764 874.646 138.032L873.976 138.568C872.993 140.355 872.502 141.829 872.502 142.99C872.502 144.062 873.038 144.732 874.11 145C874.646 144.821 875.316 144.419 876.12 143.794C877.013 143.169 877.996 142.365 879.068 141.382C879.872 140.935 880.631 140.355 881.346 139.64C882.061 138.836 882.775 138.077 883.49 137.362L884.428 136.29C886.483 133.789 888.403 131.153 890.19 128.384C891.977 125.525 893.763 122.577 895.55 119.54C896.265 118.468 896.845 117.53 897.292 116.726C897.739 115.833 898.185 114.895 898.632 113.912ZM884.026 75.9899C882.329 75.8112 880.542 75.1412 878.666 73.9799C877.683 73.2652 876.835 72.1485 876.12 70.6299C875.405 69.1112 875.048 67.4139 875.048 65.5379C874.959 64.1085 875.093 62.9472 875.45 62.0539C875.897 61.1606 876.477 60.3566 877.192 59.6419C879.157 57.8552 881.212 56.9619 883.356 56.9619C884.339 56.8725 885.634 57.1405 887.242 57.7659C888.939 58.3912 890.413 59.1505 891.664 60.0439C892.111 60.4906 892.468 60.8926 892.736 61.2499C893.004 61.6072 893.183 62.0092 893.272 62.4559C893.451 63.2599 893.406 63.9299 893.138 64.4659C892.959 65.0019 892.647 65.5825 892.2 66.2079V66.0739C892.021 66.5205 891.798 66.9672 891.53 67.4139C891.351 67.7712 891.083 68.2179 890.726 68.7539V68.6199C890.547 69.0665 890.279 69.5579 889.922 70.0939C889.654 70.5405 889.431 70.9872 889.252 71.4339C888.001 73.3992 887.063 74.6499 886.438 75.1859C885.902 75.7219 885.098 75.9899 884.026 75.9899Z" fill="white"/>
<path d="M961.256 153.308C959.112 153.129 957.325 152.37 955.896 151.03C954.556 149.779 953.484 148.35 952.68 146.742C951.876 145.134 951.295 143.571 950.938 142.052C950.58 140.444 950.357 139.283 950.268 138.568C950.178 138.121 950.134 137.675 950.134 137.228C950.134 136.781 950.134 136.335 950.134 135.888C950.134 133.208 950.446 130.171 951.072 126.776C951.697 123.381 952.501 119.897 953.484 116.324C953.484 115.788 953.618 114.761 953.886 113.242C954.154 111.634 954.422 109.892 954.69 108.016C955.047 106.051 955.449 104.085 955.896 102.12C956.342 100.065 956.789 98.3233 957.236 96.894C957.325 95.018 957.593 93.2313 958.04 91.534C958.486 89.8366 958.978 88.184 959.514 86.576C959.96 85.3253 960.407 84.03 960.854 82.69C961.3 81.2606 961.613 79.7866 961.792 78.268L962.864 74.248C962.864 74.0693 962.819 73.9353 962.73 73.846C962.64 73.6673 962.596 73.4886 962.596 73.31C962.596 72.9526 962.64 72.7293 962.73 72.64C963.087 70.3173 963.534 67.7713 964.07 65.002C964.695 62.1433 965.32 59.4633 965.946 56.962C966.66 54.4606 967.375 52.406 968.09 50.798C968.804 49.1006 969.564 48.252 970.368 48.252C971.082 48.252 972.065 48.6986 973.316 49.592C974.656 50.396 975.906 51.2446 977.068 52.138C977.872 52.8526 978.586 53.344 979.212 53.612H979.078C980.239 54.3266 981.49 55.354 982.83 56.694C984.17 58.034 984.974 59.8653 985.242 62.188C985.242 63.7066 984.795 65.806 983.902 68.486C983.098 71.166 982.07 73.8906 980.82 76.66C980.82 76.8386 980.82 76.9726 980.82 77.062C980.909 77.1513 980.954 77.2853 980.954 77.464C980.954 77.732 980.954 78.0446 980.954 78.402C981.043 78.7593 981.043 79.1166 980.954 79.474L975.594 97.162C975.683 98.1446 975.728 99.2613 975.728 100.512C975.728 101.673 975.728 102.745 975.728 103.728V106.006L971.038 117.798V119.138L971.172 120.612V122.22C971.172 122.667 971.172 123.069 971.172 123.426C971.172 123.783 971.216 124.141 971.306 124.498C969.698 128.071 968.447 131.287 967.554 134.146L967.956 138.568C966.437 141.873 965.767 144.285 965.946 145.804C965.946 146.429 966.169 146.742 966.616 146.742C967.152 146.742 968.09 146.117 969.43 144.866C970.859 143.526 972.422 141.829 974.12 139.774C975.817 137.719 977.559 135.441 979.346 132.94C981.132 130.439 982.696 127.982 984.036 125.57C984.304 125.123 984.482 124.587 984.572 123.962C984.661 123.337 984.84 122.89 985.108 122.622L987.252 118.87C987.966 117.619 988.636 116.458 989.262 115.386C989.976 114.314 990.423 113.778 990.602 113.778H990.87C991.584 113.331 992.12 113.108 992.478 113.108C992.746 113.108 993.014 113.197 993.282 113.376C993.55 113.555 993.684 113.823 993.684 114.18C993.684 114.627 993.46 115.386 993.014 116.458C992.656 117.441 991.629 119.317 989.932 122.086L990.066 121.952L989.53 123.292C988.547 125.436 987.162 127.982 985.376 130.93C983.589 133.789 981.668 136.647 979.614 139.506L978.676 140.712C977.872 141.784 977.023 142.901 976.13 144.062C975.236 145.223 974.343 146.295 973.45 147.278C972.646 148.261 971.842 149.065 971.038 149.69C970.234 150.315 969.519 150.628 968.894 150.628C968.715 150.628 968.581 150.583 968.492 150.494C968.402 150.494 968.313 150.494 968.224 150.494C966.794 151.387 965.544 152.057 964.472 152.504C963.4 153.04 962.328 153.308 961.256 153.308Z" fill="white"/>
<path d="M1021.12 108.552C1021.93 107.748 1022.73 107.48 1023.53 107.748C1024.43 107.927 1024.61 108.731 1024.07 110.16C1024.25 110.428 1024.2 110.696 1023.94 110.964V111.098C1023.4 111.813 1022.95 112.527 1022.6 113.242L1021.52 115.118C1020.63 116.637 1019.69 118.289 1018.71 120.076C1017.73 121.773 1016.61 123.56 1015.36 125.436V125.302L1014.96 126.374V126.508L1014.15 127.982C1013.35 129.233 1012.5 130.483 1011.61 131.734C1010.72 132.895 1009.73 134.057 1008.66 135.218L1007.45 136.558C1006.83 137.273 1006.2 137.987 1005.58 138.702C1005.04 139.327 1004.46 139.908 1003.84 140.444L1003.17 140.846H1003.3C1002.32 141.471 1001.42 142.052 1000.62 142.588C999.816 143.124 999.012 143.571 998.208 143.928V143.794C997.226 144.33 996.243 144.687 995.26 144.866C994.278 144.955 993.384 144.955 992.58 144.866C990.258 144.419 988.292 143.392 986.684 141.784C985.076 140.176 983.915 138.389 983.2 136.424C982.843 135.441 982.575 134.414 982.396 133.342C982.307 132.27 982.173 131.243 981.994 130.26C981.905 129.813 981.816 129.367 981.726 128.92C981.726 128.384 981.726 127.893 981.726 127.446C981.726 126.999 981.726 126.597 981.726 126.24C981.816 125.883 981.86 125.481 981.86 125.034V122.622C982.039 121.282 982.262 119.897 982.53 118.468C982.798 117.039 983.111 115.52 983.468 113.912L984.272 111.5L985.612 107.078C986.416 105.113 987.176 103.192 987.89 101.316C988.694 99.3506 989.364 97.4746 989.9 95.688V94.884C990.347 92.74 991.196 91.4 992.446 90.864C992.893 90.5066 993.384 90.328 993.92 90.328C994.546 90.2386 995.305 90.2833 996.198 90.462C997.538 90.73 998.968 91.802 1000.49 93.678C1002.09 95.4646 1003.12 97.832 1003.57 100.78C1003.75 102.209 1003.52 103.862 1002.9 105.738L1002.63 106.81C1002.63 106.989 1002.68 107.078 1002.76 107.078L1002.9 107.48C1002.99 107.659 1003.03 107.927 1003.03 108.284C1003.03 108.552 1003.03 108.775 1003.03 108.954C1003.12 109.133 1003.17 109.401 1003.17 109.758C1003.17 110.115 1003.17 110.383 1003.17 110.562C1003.17 111.277 1003.21 111.813 1003.3 112.17C1002.94 113.242 1002.59 114.269 1002.23 115.252C1001.87 116.235 1001.51 117.128 1001.16 117.932C1001.07 118.2 1000.93 118.557 1000.75 119.004C1000.67 119.361 1000.53 119.674 1000.35 119.942V120.746C999.012 124.409 997.985 127.982 997.27 131.466L997.404 131.6C997.494 131.779 997.494 131.957 997.404 132.136C997.404 132.225 997.27 132.404 997.002 132.672L996.466 133.208C996.02 134.101 995.618 134.905 995.26 135.62C994.992 136.335 994.858 137.005 994.858 137.63C994.858 138.702 995.439 139.372 996.6 139.64C997.047 139.461 997.672 139.059 998.476 138.434C999.37 137.809 1000.35 137.005 1001.42 136.022C1002.23 135.575 1002.99 134.995 1003.7 134.28C1004.42 133.476 1005.13 132.717 1005.85 132.002L1006.78 130.93C1008.84 128.429 1010.76 125.793 1012.55 123.024C1014.33 120.165 1016.12 117.217 1017.91 114.18C1018.62 113.108 1019.2 112.17 1019.65 111.366C1020.18 110.473 1020.68 109.535 1021.12 108.552ZM1007.05 74.918C1005.27 74.7393 1003.48 74.114 1001.69 73.042C1000.71 72.238 999.861 71.0766 999.146 69.558C998.432 68.0393 998.074 66.3866 998.074 64.6C997.985 63.1706 998.119 62.0093 998.476 61.116C998.923 60.1333 999.504 59.3293 1000.22 58.704C1002.27 56.828 1004.33 55.89 1006.38 55.89C1007.37 55.8006 1008.66 56.0686 1010.27 56.694C1011.97 57.3193 1013.4 58.1233 1014.56 59.106C1015.45 59.8206 1016.03 60.6246 1016.3 61.518C1016.39 62.2326 1016.3 62.9026 1016.03 63.528C1015.85 64.064 1015.54 64.6 1015.09 65.136H1015.23C1015.05 65.4933 1014.82 65.8953 1014.56 66.342C1014.38 66.7886 1014.11 67.2353 1013.75 67.682L1012.14 70.362C1011.52 71.3446 1010.98 72.1486 1010.54 72.774C1010.18 73.31 1009.82 73.7566 1009.46 74.114C1009.11 74.4713 1008.75 74.6946 1008.39 74.784C1008.04 74.8733 1007.59 74.918 1007.05 74.918Z" fill="white"/>
<path d="M1040.58 148.618C1038.44 147.903 1036.65 146.295 1035.22 143.794C1033.88 141.293 1033.03 138.3 1032.67 134.816C1032.5 132.761 1032.85 129.947 1033.75 126.374C1034.73 122.801 1036.11 118.959 1037.9 114.85L1039.78 111.634C1040.31 110.651 1040.8 109.758 1041.25 108.954C1041.7 108.061 1041.88 107.257 1041.79 106.542C1041.97 106.095 1042.14 105.738 1042.32 105.47C1042.5 105.202 1042.64 104.979 1042.72 104.8L1042.86 104.532C1042.68 104.711 1042.41 104.934 1042.05 105.202C1041.79 105.381 1041.47 105.693 1041.12 106.14C1040.76 106.14 1040.22 106.363 1039.51 106.81C1038.79 107.167 1038.03 107.703 1037.23 108.418C1036.43 109.043 1035.71 109.803 1035.09 110.696C1034.46 111.5 1034.01 112.349 1033.75 113.242C1031.96 115.565 1030.44 118.066 1029.19 120.746C1028.03 123.337 1026.91 125.883 1025.84 128.384C1025.66 129.009 1025.39 129.679 1025.04 130.394C1024.68 131.109 1024.41 131.734 1024.23 132.27C1024.23 132.627 1024.23 132.94 1024.23 133.208C1024.32 133.476 1024.41 133.789 1024.5 134.146C1024.59 134.503 1024.63 134.861 1024.63 135.218C1024.72 135.575 1024.77 136.022 1024.77 136.558C1024.77 136.915 1024.72 137.139 1024.63 137.228V137.094C1023.92 138.434 1023.25 139.863 1022.62 141.382C1022.09 142.901 1021.6 144.285 1021.15 145.536C1020.79 146.697 1020.39 147.725 1019.94 148.618C1019.59 149.511 1019.14 149.958 1018.6 149.958H1018.34L1016.33 149.288C1016.06 150.449 1015.52 151.03 1014.72 151.03C1014.18 151.03 1013.6 150.807 1012.98 150.36C1012.35 149.913 1011.68 149.288 1010.97 148.484C1010.34 147.769 1009.76 146.921 1009.22 145.938C1008.78 145.045 1008.42 144.062 1008.15 142.99L1007.62 142.588C1007.53 142.141 1007.53 141.739 1007.62 141.382C1007.62 140.935 1007.66 140.489 1007.75 140.042C1007.93 139.506 1008.06 138.925 1008.15 138.3C1008.24 137.675 1008.24 137.094 1008.15 136.558C1008.06 136.111 1008.02 135.709 1008.02 135.352C1007.93 134.905 1007.8 134.459 1007.62 134.012C1007.71 132.672 1007.88 131.421 1008.15 130.26C1008.42 129.009 1008.73 127.803 1009.09 126.642L1009.22 125.838C1009.22 125.57 1009.18 125.391 1009.09 125.302V124.632C1009 124.453 1008.96 124.141 1008.96 123.694V122.622L1011.64 114.716C1011.64 114.627 1011.59 114.448 1011.5 114.18V113.644L1014.18 105.47C1014.99 103.683 1015.61 101.897 1016.06 100.11C1016.59 98.234 1016.86 96.6706 1016.86 95.42C1016.68 94.1693 1017.09 93.544 1018.07 93.544C1018.43 93.544 1019.01 93.6333 1019.81 93.812C1020.61 93.9906 1021.46 94.3033 1022.36 94.75C1023.25 95.1073 1024.05 95.6433 1024.77 96.358C1025.57 97.0726 1026.11 97.966 1026.38 99.038C1026.64 98.9486 1027.09 98.904 1027.72 98.904C1027.72 98.9933 1027.72 99.0826 1027.72 99.172C1027.81 99.2613 1027.85 99.3506 1027.85 99.44C1028.03 100.333 1028.12 100.959 1028.12 101.316C1028.21 101.584 1028.25 101.897 1028.25 102.254C1028.25 102.611 1028.25 102.879 1028.25 103.058V103.192C1028.97 103.549 1029.46 104.443 1029.73 105.872C1030.08 107.212 1030.31 108.373 1030.4 109.356L1029.73 111.098V111.366L1030.8 110.16C1031.87 108.999 1033.17 107.659 1034.68 106.14C1036.2 104.532 1037.77 103.013 1039.37 101.584C1040.98 100.155 1042.55 98.9486 1044.06 97.966C1045.67 96.9833 1047.01 96.492 1048.08 96.492C1048.98 96.492 1049.87 96.8046 1050.76 97.43C1051.66 98.0553 1052.42 98.8593 1053.04 99.842C1053.76 100.735 1054.34 101.763 1054.78 102.924C1055.23 104.085 1055.5 105.202 1055.59 106.274C1055.59 106.721 1055.59 107.212 1055.59 107.748C1055.59 108.195 1055.54 108.731 1055.45 109.356C1055.81 109.713 1056.12 110.115 1056.39 110.562C1056.66 111.009 1057.02 111.589 1057.46 112.304L1055.99 116.592C1055.63 117.485 1055.28 118.423 1054.92 119.406C1054.65 120.299 1054.43 121.148 1054.25 121.952C1054.16 122.309 1054.03 122.667 1053.85 123.024C1053.76 123.381 1053.67 123.739 1053.58 124.096V124.23L1049.56 135.352V136.022C1048.75 137.898 1048.08 139.595 1047.55 141.114C1047.01 142.543 1046.79 143.615 1046.88 144.33C1046.88 144.509 1046.88 144.643 1046.88 144.732C1046.97 144.821 1047.01 144.911 1047.01 145C1048.08 144.821 1049.34 144.285 1050.76 143.392C1052.28 142.499 1053.76 141.337 1055.19 139.908C1056.71 138.479 1058.18 136.871 1059.61 135.084C1061.13 133.297 1062.42 131.421 1063.49 129.456C1063.85 129.009 1064.25 128.295 1064.7 127.312C1065.24 126.329 1065.82 125.213 1066.44 123.962C1067.25 122.443 1068.1 120.835 1068.99 119.138C1069.88 117.441 1070.73 115.922 1071.53 114.582C1072.34 113.153 1073.1 111.991 1073.81 111.098C1074.62 110.205 1075.29 109.758 1075.82 109.758C1076.27 109.758 1076.58 109.937 1076.76 110.294C1077.03 110.562 1077.16 110.875 1077.16 111.232C1077.34 111.947 1077.21 112.572 1076.76 113.108H1076.89L1075.29 116.19C1075.02 116.726 1074.62 117.485 1074.08 118.468C1073.63 119.361 1073.14 120.344 1072.61 121.416C1072.07 122.399 1071.53 123.381 1071 124.364C1070.46 125.347 1069.97 126.151 1069.52 126.776L1064.7 134.548V134.414C1063.99 136.022 1062.74 137.853 1060.95 139.908C1059.25 141.963 1057.6 143.437 1055.99 144.33C1055.63 144.687 1055.1 145.134 1054.38 145.67C1053.67 146.206 1052.91 146.742 1052.1 147.278C1051.39 147.814 1050.68 148.261 1049.96 148.618C1049.34 149.065 1048.89 149.288 1048.62 149.288C1048.44 149.288 1048.26 149.243 1048.08 149.154C1048 149.154 1047.86 149.154 1047.68 149.154L1047.15 148.886C1046.7 148.975 1046.16 149.02 1045.54 149.02C1045 149.109 1044.51 149.154 1044.06 149.154C1042.72 149.154 1041.56 148.975 1040.58 148.618Z" fill="white"/>
<path d="M1109.95 122.622C1111.2 120.567 1112.4 118.602 1113.57 116.726C1114.82 114.761 1115.75 113.689 1116.38 113.51C1116.74 113.242 1117.14 113.108 1117.59 113.108L1118.26 112.84V112.974C1118.52 112.795 1118.7 112.751 1118.79 112.84C1118.88 112.84 1118.97 113.108 1119.06 113.644C1119.15 114.359 1118.88 115.163 1118.26 116.056C1117.72 116.949 1116.96 118.021 1115.98 119.272C1115.62 119.987 1115.08 120.925 1114.37 122.086C1113.65 123.158 1112.9 124.185 1112.09 125.168L1111.42 126.24C1111.42 126.329 1111.33 126.553 1111.15 126.91L1110.75 128.116L1108.07 131.6C1107.27 132.672 1106.33 133.789 1105.26 134.95C1104.19 136.022 1103.34 137.094 1102.71 138.166L1102.44 138.434C1101.46 139.595 1100.34 140.846 1099.09 142.186C1097.84 143.526 1096.59 144.598 1095.34 145.402L1093.33 146.742L1091.19 148.216C1089.4 149.467 1087.75 150.494 1086.23 151.298C1084.71 152.102 1082.83 152.459 1080.6 152.37C1079.98 152.37 1079.17 152.325 1078.19 152.236C1077.3 152.147 1076.31 152.013 1075.24 151.834C1074.17 151.655 1073.1 151.343 1072.03 150.896C1071.04 150.539 1070.15 150.092 1069.35 149.556L1069.48 149.69C1068.23 149.243 1066.89 148.305 1065.46 146.876C1064.12 145.447 1063.23 143.213 1062.78 140.176H1062.91C1062.11 138.925 1061.71 137.809 1061.71 136.826V135.62C1061.71 135.173 1061.71 134.727 1061.71 134.28C1061.71 133.833 1061.75 133.342 1061.84 132.806C1061.84 131.823 1061.89 130.93 1061.98 130.126C1061.98 129.322 1061.93 128.875 1061.84 128.786C1061.84 127.357 1061.93 125.927 1062.11 124.498C1062.29 123.069 1062.47 121.639 1062.65 120.21C1062.65 119.942 1062.69 119.763 1062.78 119.674C1062.78 119.495 1062.78 119.361 1062.78 119.272C1062.87 119.093 1062.91 118.915 1062.91 118.736C1063.27 117.217 1063.72 115.788 1064.25 114.448C1064.79 113.019 1065.41 111.634 1066.13 110.294L1067.07 107.748L1067.6 106.944C1068.32 105.872 1069.08 104.621 1069.88 103.192C1070.77 101.763 1071.58 100.825 1072.29 100.378L1074.04 98.502C1074.75 97.6086 1075.51 96.76 1076.31 95.956C1077.12 95.152 1077.92 94.3926 1078.73 93.678C1079.17 93.2313 1079.53 92.9633 1079.8 92.874V93.008L1080.47 92.472C1081.27 91.7573 1082.08 91.3553 1082.88 91.266C1083.68 91.1766 1084.4 91.1766 1085.02 91.266H1085.96C1086.32 91.266 1086.85 91.0426 1087.57 90.596C1088.02 90.4173 1088.46 90.2386 1088.91 90.06C1089.45 89.8813 1089.85 89.8813 1090.12 90.06C1090.47 89.8813 1090.79 89.792 1091.05 89.792C1091.41 89.792 1091.72 89.792 1091.99 89.792C1092.35 89.792 1093.11 89.8813 1094.27 90.06C1095.52 90.1493 1096.82 90.5066 1098.16 91.132C1099.5 91.668 1100.75 92.606 1101.91 93.946C1103.07 95.1966 1103.78 96.9386 1104.05 99.172C1104.05 101.227 1103.6 103.192 1102.71 105.068C1102.62 105.336 1102.4 105.827 1102.04 106.542C1101.68 107.257 1101.28 108.061 1100.84 108.954C1100.39 109.758 1099.85 110.562 1099.23 111.366C1098.69 112.17 1098.2 112.84 1097.75 113.376L1097.08 113.912C1095.39 116.324 1093.24 118.513 1090.65 120.478C1090.2 120.925 1089.58 121.505 1088.78 122.22C1087.97 122.935 1087.12 123.649 1086.23 124.364C1085.34 125.079 1084.49 125.749 1083.68 126.374C1082.88 126.91 1082.3 127.267 1081.94 127.446L1078.59 129.054C1077.97 129.769 1077.56 130.885 1077.39 132.404C1077.21 133.833 1077.12 135.352 1077.12 136.96C1077.12 138.211 1077.16 139.461 1077.25 140.712C1077.34 141.873 1077.43 142.856 1077.52 143.66C1077.61 144.375 1078.14 144.955 1079.13 145.402C1080.2 145.849 1081.32 146.072 1082.48 146.072C1083.46 146.072 1084.76 145.715 1086.36 145C1088.06 144.375 1089.89 143.392 1091.86 142.052C1093.82 140.712 1095.88 139.104 1098.02 137.228C1100.17 135.352 1102.18 133.208 1104.05 130.796C1104.23 130.349 1104.45 129.947 1104.72 129.59C1105.08 129.143 1105.35 128.741 1105.53 128.384C1105.97 127.669 1106.64 126.821 1107.54 125.838C1108.43 124.855 1109.23 123.783 1109.95 122.622ZM1097.75 101.718C1097.57 101.539 1097.35 101.361 1097.08 101.182C1096.9 101.003 1096.68 100.825 1096.41 100.646C1095.88 100.825 1095.03 101.495 1093.87 102.656C1092.8 103.728 1091.77 104.934 1090.79 106.274L1090.12 106.81C1090.03 106.989 1089.89 107.212 1089.71 107.48C1089.62 107.659 1089.53 107.882 1089.45 108.15C1089.45 108.239 1089.4 108.329 1089.31 108.418C1089.22 108.507 1089.18 108.597 1089.18 108.686C1087.39 111.455 1085.83 114.135 1084.49 116.726C1083.24 119.317 1082.39 121.282 1081.94 122.622C1082.48 122.354 1083.01 122.041 1083.55 121.684C1084.09 121.237 1084.58 120.791 1085.02 120.344L1086.1 119.406L1087.97 117.932C1090.65 115.341 1092.88 112.617 1094.67 109.758C1096.55 106.81 1097.57 104.13 1097.75 101.718Z" fill="white"/>
<path d="M926.964 161.884C921.425 161.437 917.137 159.204 914.1 155.184C911.062 151.253 909.32 146.385 908.874 140.578C908.784 139.774 908.829 138.881 909.008 137.898C909.186 136.826 909.41 135.754 909.678 134.682C909.946 133.521 910.169 132.359 910.348 131.198C910.616 130.037 910.75 128.875 910.75 127.714C910.75 125.481 911.107 123.426 911.822 121.55C912.626 119.585 913.43 117.798 914.234 116.19C915.038 114.493 915.752 112.929 916.378 111.5C917.092 109.981 917.405 108.552 917.316 107.212C917.316 107.123 917.271 107.033 917.182 106.944C917.271 106.497 917.316 106.14 917.316 105.872C917.405 105.604 917.45 105.381 917.45 105.202C917.36 104.934 917.226 104.8 917.048 104.8C916.869 104.8 916.601 104.934 916.244 105.202C915.886 105.47 915.529 105.604 915.172 105.604C915.082 105.604 915.038 105.604 915.038 105.604C915.038 105.515 914.993 105.47 914.904 105.47C914.546 105.649 914.278 105.738 914.1 105.738C913.385 105.738 912.447 105.515 911.286 105.068C910.124 104.621 909.052 104.398 908.07 104.398C907.355 104.398 906.864 104.755 906.596 105.47C906.417 106.185 906.283 106.989 906.194 107.882C906.104 108.686 905.97 109.535 905.792 110.428C905.613 111.232 905.211 111.768 904.586 112.036C904.407 112.393 904.228 112.751 904.05 113.108C903.96 113.465 903.871 113.644 903.782 113.644C903.424 113.644 903.022 113.957 902.576 114.582C902.129 115.207 901.682 115.922 901.236 116.726C900.789 117.53 900.387 118.245 900.03 118.87C899.672 119.495 899.36 119.808 899.092 119.808C898.734 119.808 898.422 118.781 898.154 116.726C898.154 116.547 898.466 115.833 899.092 114.582C899.717 113.242 900.387 111.813 901.102 110.294C901.906 108.686 902.576 107.123 903.112 105.604C903.737 104.085 904.05 102.969 904.05 102.254C904.05 101.897 903.737 101.271 903.112 100.378C902.576 99.4846 901.95 98.5913 901.236 97.698C900.521 96.7153 899.851 95.822 899.226 95.018C898.69 94.1246 898.422 93.4993 898.422 93.142L898.288 92.338C897.93 91.8913 897.707 91.4 897.618 90.864C897.528 88.6306 897.752 86.174 898.288 83.494C898.913 80.814 899.806 78.3573 900.968 76.124C902.129 73.8013 903.558 71.8806 905.256 70.362C907.042 68.8433 909.052 68.084 911.286 68.084C913.072 68.084 914.636 68.62 915.976 69.692C917.316 70.764 918.075 72.2827 918.254 74.248C918.432 76.4813 918.12 78.9826 917.316 81.752C916.512 84.5213 915.529 87.2013 914.368 89.792C913.296 92.3826 912.268 94.7053 911.286 96.76C910.303 98.7253 909.722 100.065 909.544 100.78C909.544 100.959 909.722 101.048 910.08 101.048C910.348 101.048 910.66 101.048 911.018 101.048C911.375 100.959 911.777 100.869 912.224 100.78L912.626 101.584C912.804 101.763 912.938 101.852 913.028 101.852C913.474 101.852 914.1 101.718 914.904 101.45L920.264 98.234C922.229 96.9833 923.882 96.09 925.222 95.554C926.562 94.9286 927.455 94.5713 927.902 94.482C928.348 94.482 929.108 94.7946 930.18 95.42C931.252 96.0453 932.324 96.8493 933.396 97.832C934.468 98.8146 935.406 99.8867 936.21 101.048C937.103 102.209 937.594 103.371 937.684 104.532C937.773 105.336 937.505 106.408 936.88 107.748C936.254 108.999 935.45 110.517 934.468 112.304C933.574 114.001 932.547 115.967 931.386 118.2C930.314 120.433 929.376 122.845 928.572 125.436L925.758 131.868C924.686 135.531 924.284 139.149 924.552 142.722L924.82 145.402C924.82 145.67 924.73 145.893 924.552 146.072C924.73 147.323 924.909 148.663 925.088 150.092C925.356 151.611 925.668 152.951 926.026 154.112C926.472 155.273 927.008 156.122 927.634 156.658C928.348 157.283 929.242 157.239 930.314 156.524C930.492 156.613 930.805 156.658 931.252 156.658C932.502 156.658 933.887 155.988 935.406 154.648C937.014 153.397 938.666 151.789 940.364 149.824C942.061 147.948 943.758 145.849 945.456 143.526C947.153 141.114 948.761 138.836 950.28 136.692C951.084 135.62 951.62 134.637 951.888 133.744C952.245 132.851 952.558 132.091 952.826 131.466C953.094 130.751 953.406 130.215 953.764 129.858C954.121 129.501 954.657 129.322 955.372 129.322C956.265 129.322 956.712 129.724 956.712 130.528C956.712 130.796 956.846 130.975 957.114 131.064C957.382 131.153 957.471 131.421 957.382 131.868C957.382 132.225 957.069 132.895 956.444 133.878C955.908 134.771 954.88 136.201 953.362 138.166L952.156 140.042C951.441 140.757 950.816 141.561 950.28 142.454C949.744 143.347 949.163 144.196 948.538 145L947.198 146.608C946.215 147.769 945.366 148.841 944.652 149.824C944.026 150.896 943.356 152.057 942.642 153.308C939.694 156.524 936.924 158.757 934.334 160.008C931.832 161.259 929.376 161.884 926.964 161.884ZM905.524 90.73C905.702 92.2486 905.97 93.544 906.328 94.616C906.685 95.688 906.953 96.4473 907.132 96.894C907.936 95.286 908.695 93.6333 909.41 91.936C910.214 90.2386 910.884 88.6306 911.42 87.112C912.045 85.5933 912.536 84.2086 912.894 82.958C913.251 81.7073 913.385 80.68 913.296 79.876C913.117 78.8933 912.76 78.3573 912.224 78.268C911.598 78.536 910.884 79.1613 910.08 80.144C909.365 81.0373 908.65 82.1093 907.936 83.36C907.221 84.5213 906.64 85.772 906.194 87.112C905.747 88.452 905.524 89.658 905.524 90.73Z" fill="white"/>
<path d="M1162.93 109.49C1163.73 108.775 1164.49 108.597 1165.21 108.954C1166.01 109.311 1166.24 110.115 1165.88 111.366C1165.88 111.991 1165.25 113.063 1164 114.582V114.448C1163.29 115.699 1162.57 116.949 1161.86 118.2C1161.14 119.361 1160.25 120.523 1159.18 121.684V121.55L1158.91 122.086L1158.37 123.024C1157.39 124.096 1156.19 125.168 1154.76 126.24C1153.42 127.223 1151.81 128.205 1149.93 129.188L1148.99 129.724C1148.46 129.903 1147.83 130.171 1147.12 130.528C1146.49 130.796 1145.82 131.019 1145.11 131.198L1143.1 132.136H1141.62C1141.53 133.833 1141.09 135.575 1140.28 137.362C1139.48 139.059 1138.81 140.399 1138.27 141.382C1138.01 141.739 1137.6 142.097 1137.07 142.454C1136.53 142.722 1136 142.99 1135.46 143.258L1134.25 143.928C1133.9 144.196 1133.36 144.509 1132.65 144.866C1131.93 145.134 1131.13 145.402 1130.23 145.67C1129.43 145.938 1128.58 146.161 1127.69 146.34C1126.88 146.519 1126.21 146.653 1125.68 146.742C1125.14 146.831 1124.47 146.742 1123.67 146.474C1122.95 146.206 1122.28 145.983 1121.66 145.804C1121.3 145.625 1121.08 145.536 1120.99 145.536C1120.09 145.625 1119.02 145.447 1117.77 145C1116.61 144.643 1115.36 144.107 1114.02 143.392L1114.15 143.526C1113.17 142.901 1112.28 142.141 1111.47 141.248C1110.67 140.265 1110.18 139.149 1110 137.898C1109.73 136.647 1109.96 135.486 1110.67 134.414C1111.47 133.253 1112.46 132.359 1113.62 131.734C1114.24 131.109 1115.18 130.573 1116.43 130.126C1117.68 129.59 1118.98 129.143 1120.32 128.786C1121.66 128.429 1122.86 128.205 1123.94 128.116C1125.1 128.027 1125.9 128.116 1126.35 128.384C1127.06 127.937 1127.46 127.312 1127.55 126.508C1127.55 126.419 1127.55 126.329 1127.55 126.24C1127.64 126.151 1127.69 126.017 1127.69 125.838C1128.05 125.123 1128.18 124.587 1128.09 124.23C1128.09 123.426 1128.22 122.667 1128.49 121.952C1128.67 121.237 1128.8 120.567 1128.89 119.942C1128.98 119.317 1128.89 118.602 1128.63 117.798L1129.43 111.902V111.768C1129.16 111.232 1128.98 110.741 1128.89 110.294C1128.89 109.758 1128.85 109.222 1128.76 108.686C1128.76 107.525 1128.54 106.497 1128.09 105.604C1127.91 104.889 1127.73 104.175 1127.55 103.46C1127.46 102.656 1127.2 101.852 1126.75 101.048C1126.57 100.869 1126.35 100.467 1126.08 99.8419C1125.63 100.378 1125.1 101.316 1124.47 102.656C1123.85 103.996 1123.27 105.381 1122.73 106.81C1122.1 108.418 1121.48 109.937 1120.85 111.366C1120.23 112.706 1119.6 113.555 1118.98 113.912C1118.44 114.18 1117.77 114.314 1116.97 114.314C1116.34 114.314 1115.9 114.135 1115.63 113.778C1115.45 113.421 1115.58 112.795 1116.03 111.902C1116.3 111.455 1116.79 110.473 1117.5 108.954C1118.22 107.435 1118.93 105.783 1119.65 103.996C1120.45 102.209 1121.21 100.512 1121.93 98.9039C1122.64 97.2066 1123.13 96.0006 1123.4 95.2859L1120.32 79.6079C1120.5 78.8932 1120.94 78.0892 1121.66 77.1959C1122.37 76.3026 1123.09 75.4539 1123.8 74.6499C1124.34 74.0246 1124.83 73.4439 1125.28 72.9079C1125.72 72.3719 1126.04 71.8806 1126.21 71.4339C1127.11 70.4512 1127.91 69.7812 1128.63 69.4239C1129.34 68.9772 1130.06 68.7539 1130.77 68.7539C1131.31 68.7539 1131.75 68.8879 1132.11 69.1559C1132.56 69.3346 1133 69.6026 1133.45 69.9599L1134.12 70.3619C1134.57 70.7192 1135.15 71.1212 1135.86 71.5679C1136.58 72.0146 1137.02 72.3272 1137.2 72.5059C1138.36 72.9526 1139.17 73.5779 1139.61 74.3819C1140.15 75.1859 1140.42 76.0792 1140.42 77.0619C1140.42 79.0272 1139.75 81.1712 1138.41 83.4939C1137.07 85.7272 1135.68 87.4246 1134.25 88.5859C1134.61 89.2112 1135.19 90.4619 1136 92.3379C1136.8 94.1246 1137.6 96.0452 1138.41 98.0999C1139.3 100.155 1140.11 102.12 1140.82 103.996C1141.53 105.783 1142.03 106.989 1142.29 107.614L1144.04 109.356L1145.51 113.376C1145.96 113.644 1146.14 113.912 1146.05 114.18C1145.96 114.359 1145.82 114.582 1145.64 114.85C1145.47 115.297 1145.42 115.565 1145.51 115.654L1145.64 116.19L1145.91 116.994C1145.91 117.53 1146 118.155 1146.18 118.87C1146.45 120.389 1146.45 121.327 1146.18 121.684C1146.09 122.131 1145.91 122.577 1145.64 123.024C1145.47 123.381 1145.2 123.828 1144.84 124.364C1144.48 124.811 1144.17 125.302 1143.9 125.838C1143.63 126.374 1143.46 126.91 1143.37 127.446L1146.18 126.642C1147.7 126.106 1149.08 125.391 1150.33 124.498H1150.2L1150.6 124.23C1152.92 122.711 1154.89 121.014 1156.5 119.138C1158.11 117.173 1159.67 115.029 1161.19 112.706C1161.46 112.259 1161.72 111.813 1161.99 111.366C1162.26 110.83 1162.57 110.205 1162.93 109.49ZM1125.54 132.538C1125.45 132.449 1124.92 132.538 1123.94 132.806C1123.04 132.985 1121.97 133.297 1120.72 133.744C1119.47 134.101 1118.22 134.637 1116.97 135.352C1115.72 135.977 1114.82 136.737 1114.29 137.63C1114.11 138.255 1114.38 138.836 1115.09 139.372C1115.81 139.819 1116.66 140.042 1117.64 140.042C1118.35 140.042 1119.25 139.819 1120.32 139.372C1123.18 138.211 1124.92 135.933 1125.54 132.538Z" fill="white"/>
<path d="M40 61H170V124L160 140H42.5L40 137V61Z" fill="#BC2036"/>
<rect x="61.4014" y="117.031" width="105.472" height="23.072" transform="rotate(-30 61.4014 117.031)" fill="white"/>
<path d="M68.2286 66.639L151.982 90.6484L127.331 103.85L43.5777 79.8403L68.2286 66.639Z" fill="white"/>
</svg>
